<?xml version="1.0" encoding="utf-8"?>
<svg viewBox="0 0 300 300" xmlns="http://www.w3.org/2000/svg">
  <g transform="matrix(0.1, 0, 0, -0.1, 0, 300)" fill="#000000" stroke="none">
    <path d="M764 2810 c-54 -17 -128 -73 -161 -123 -103 -153 -43 -367 125 -449 65 -31 187 -32 253 -1 60 27 125 92 152 152 31 67 31 199 -1 258 -58 109 -144 165 -262 169 -41 2 -89 -1 -106 -6z" style="fill: rgb(253, 12, 156);"/>
    <path d="M1983 2810 c-129 -27 -184 -100 -228 -301 -25 -111 -66 -219 -91 -240 -8 -6 -14 -18 -14 -27 0 -21 145 -12 181 12 26 16 28 16 79 -16 47 -29 63 -33 136 -37 80 -3 87 -1 146 31 l63 35 40 -18 c42 -19 165 -26 165 -10 0 5 -11 29 -25 52 -29 51 -69 169 -85 253 -27 137 -67 203 -144 241 -58 28 -157 39 -223 25z" style="fill: rgb(253, 12, 156);"/>
    <path d="M790 2061 c-119 -27 -175 -49 -252 -101 -176 -116 -270 -262 -314 -488 -20 -104 -13 -173 33 -347 63 -236 231 -484 469 -690 l69 -60 -48 55 c-161 185 -262 399 -274 580 -10 148 26 273 110 387 108 145 268 224 455 223 139 -1 270 -48 402 -146 l62 -45 51 40 c71 54 199 117 278 136 76 18 197 19 271 4 121 -26 266 -123 333 -225 21 -31 50 -89 64 -128 23 -63 26 -85 25 -196 -1 -95 -6 -144 -23 -205 -39 -146 -123 -295 -231 -409 -72 -78 -43 -61 64 37 108 98 232 247 292 348 240 410 194 867 -110 1094 -107 80 -172 107 -350 146 -149 33 -434 -58 -596 -190 -25 -21 -51 -41 -58 -45 -8 -5 -39 13 -85 47 -127 97 -239 147 -405 182 -90 18 -135 18 -232 -4z" style="fill: rgb(253, 12, 156);"/>
    <path d="M954 991 c-37 -22 -59 -70 -50 -107 4 -15 21 -40 38 -56 80 -74 207 14 164 115 -25 62 -94 83 -152 48z" style="fill: rgb(253, 12, 156);"/>
    <path d="M1465 1001 c-34 -15 -56 -47 -62 -90 -5 -36 -2 -44 30 -76 28 -28 43 -35 75 -35 33 0 45 6 71 35 41 47 42 93 4 135 -30 33 -82 46 -118 31z" style="fill: rgb(253, 12, 156);"/>
    <path d="M1964 1001 c-35 -15 -64 -60 -64 -100 0 -29 7 -44 33 -69 44 -43 93 -44 139 -3 65 58 33 165 -53 176 -18 3 -44 1 -55 -4z" style="fill: rgb(253, 12, 156);"/>
  </g>
</svg>